<?xml version="1.0" encoding="UTF-8" standalone="no"?>
<!DOCTYPE svg PUBLIC "-//W3C//DTD SVG 1.1//EN"
 "http://www.w3.org/Graphics/SVG/1.1/DTD/svg11.dtd">
<!-- Generated by graphviz version 3.0.0 (20220226.1711)
 -->
<!-- Title: G Pages: 1 -->
<svg width="114pt" height="188pt"
 viewBox="0.00 0.00 114.11 188.00" xmlns="http://www.w3.org/2000/svg" xmlns:xlink="http://www.w3.org/1999/xlink">
<g id="graph0" class="graph" transform="scale(1 1) rotate(0) translate(4 184)">
<title>G</title><style>.edge>path:hover{stroke-width:8}</style>
<polygon fill="white" stroke="transparent" points="-4,4 -4,-184 110.11,-184 110.11,4 -4,4"/>
<!-- http3_client -->
<g id="node1" class="node">
<title>http3_client</title><style>.edge>path:hover{stroke-width:8}</style>
<ellipse fill="#ac4949" stroke="black" cx="47.68" cy="-18" rx="39.38" ry="18"/>
<text text-anchor="middle" x="47.68" y="-15.5" font-family="Helvetica,sans-Serif" font-size="10.00" fill="#ffffff">http3_client</text>
</g>
<!-- wsproto -->
<g id="node2" class="node">
<title>wsproto</title><style>.edge>path:hover{stroke-width:8}</style>
<ellipse fill="#4cb3b3" stroke="black" cx="76.68" cy="-90" rx="29.37" ry="18"/>
<text text-anchor="middle" x="76.68" y="-87.5" font-family="Helvetica,sans-Serif" font-size="10.00" fill="#000000">wsproto</text>
</g>
<!-- wsproto&#45;&gt;http3_client -->
<g id="edge1" class="edge">
<title>wsproto&#45;&gt;http3_client</title><style>.edge>path:hover{stroke-width:8}</style>
<path fill="none" stroke="black" d="M69.81,-72.41C66.46,-64.34 62.36,-54.43 58.6,-45.35"/>
<polygon fill="#4cb3b3" stroke="black" points="61.77,-43.86 54.71,-35.96 55.3,-46.53 61.77,-43.86"/>
</g>
<!-- wsproto_events -->
<g id="node3" class="node">
<title>wsproto_events</title><style>.edge>path:hover{stroke-width:8}</style>
<ellipse fill="#47c2c2" stroke="black" cx="47.68" cy="-162" rx="47.86" ry="18"/>
<text text-anchor="middle" x="47.68" y="-159.5" font-family="Helvetica,sans-Serif" font-size="10.00" fill="#000000">wsproto.events</text>
</g>
<!-- wsproto_events&#45;&gt;http3_client -->
<g id="edge2" class="edge">
<title>wsproto_events&#45;&gt;http3_client</title><style>.edge>path:hover{stroke-width:8}</style>
<path fill="none" stroke="black" d="M44.03,-143.91C42.01,-133.57 39.7,-120.09 38.68,-108 37.34,-92.06 37.34,-87.94 38.68,-72 39.4,-63.5 40.75,-54.31 42.19,-46.01"/>
<polygon fill="#47c2c2" stroke="black" points="45.65,-46.56 44.03,-36.09 38.77,-45.29 45.65,-46.56"/>
</g>
<!-- wsproto_events&#45;&gt;wsproto -->
<g id="edge3" class="edge">
<title>wsproto_events&#45;&gt;wsproto</title><style>.edge>path:hover{stroke-width:8}</style>
<path fill="none" stroke="black" d="M54.7,-144.05C58.05,-135.97 62.13,-126.12 65.86,-117.11"/>
<polygon fill="#47c2c2" stroke="black" points="69.13,-118.37 69.73,-107.79 62.67,-115.69 69.13,-118.37"/>
</g>
</g>
</svg>
