<?xml version="1.0" encoding="UTF-8" standalone="no"?>
<!DOCTYPE svg PUBLIC "-//W3C//DTD SVG 1.1//EN"
 "http://www.w3.org/Graphics/SVG/1.1/DTD/svg11.dtd">
<!-- Generated by graphviz version 3.0.0 (20220226.1711)
 -->
<!-- Title: G Pages: 1 -->
<svg width="391pt" height="758pt"
 viewBox="0.00 0.00 391.11 758.32" xmlns="http://www.w3.org/2000/svg" xmlns:xlink="http://www.w3.org/1999/xlink">
<g id="graph0" class="graph" transform="scale(1 1) rotate(0) translate(4 754.32)">
<title>G</title><style>.edge>path:hover{stroke-width:8}</style>
<polygon fill="white" stroke="transparent" points="-4,4 -4,-754.32 387.11,-754.32 387.11,4 -4,4"/>
<!-- aioquic -->
<g id="node1" class="node">
<title>aioquic</title><style>.edge>path:hover{stroke-width:8}</style>
<ellipse fill="#c04040" stroke="black" cx="68.68" cy="-660.32" rx="27.84" ry="18"/>
<text text-anchor="middle" x="68.68" y="-657.82" font-family="Helvetica,sans-Serif" font-size="10.00" fill="#ffffff">aioquic</text>
</g>
<!-- aioquic_about -->
<g id="node2" class="node">
<title>aioquic_about</title><style>.edge>path:hover{stroke-width:8}</style>
<ellipse fill="#b65353" stroke="black" cx="68.68" cy="-732.32" rx="43.62" ry="18"/>
<text text-anchor="middle" x="68.68" y="-729.82" font-family="Helvetica,sans-Serif" font-size="10.00" fill="#ffffff">aioquic.about</text>
</g>
<!-- aioquic_about&#45;&gt;aioquic -->
<g id="edge1" class="edge">
<title>aioquic_about&#45;&gt;aioquic</title><style>.edge>path:hover{stroke-width:8}</style>
<path fill="none" stroke="black" d="M68.68,-714.02C68.68,-706.31 68.68,-697.04 68.68,-688.44"/>
<polygon fill="#b65353" stroke="black" points="72.18,-688.43 68.68,-678.43 65.18,-688.43 72.18,-688.43"/>
</g>
<!-- aioquic_asyncio -->
<g id="node3" class="node">
<title>aioquic_asyncio</title><style>.edge>path:hover{stroke-width:8}</style>
<ellipse fill="#a44646" stroke="black" cx="136.68" cy="-21.21" rx="35.21" ry="21.43"/>
<text text-anchor="middle" x="136.68" y="-24.21" font-family="Helvetica,sans-Serif" font-size="10.00" fill="#ffffff">aioquic.</text>
<text text-anchor="middle" x="136.68" y="-13.21" font-family="Helvetica,sans-Serif" font-size="10.00" fill="#ffffff">asyncio</text>
</g>
<!-- aioquic_asyncio_client -->
<g id="node4" class="node">
<title>aioquic_asyncio_client</title><style>.edge>path:hover{stroke-width:8}</style>
<ellipse fill="#964040" stroke="black" cx="71.68" cy="-107.42" rx="37.45" ry="28.98"/>
<text text-anchor="middle" x="71.68" y="-115.92" font-family="Helvetica,sans-Serif" font-size="10.00" fill="#ffffff">aioquic.</text>
<text text-anchor="middle" x="71.68" y="-104.92" font-family="Helvetica,sans-Serif" font-size="10.00" fill="#ffffff">asyncio.</text>
<text text-anchor="middle" x="71.68" y="-93.92" font-family="Helvetica,sans-Serif" font-size="10.00" fill="#ffffff">client</text>
</g>
<!-- aioquic_asyncio_client&#45;&gt;aioquic_asyncio -->
<g id="edge2" class="edge">
<title>aioquic_asyncio_client&#45;&gt;aioquic_asyncio</title><style>.edge>path:hover{stroke-width:8}</style>
<path fill="none" stroke="black" d="M90.48,-82.06C98.47,-71.71 107.81,-59.62 115.99,-49.01"/>
<polygon fill="#964040" stroke="black" points="118.92,-50.95 122.26,-40.9 113.38,-46.67 118.92,-50.95"/>
</g>
<!-- aioquic_asyncio_protocol -->
<g id="node5" class="node">
<title>aioquic_asyncio_protocol</title><style>.edge>path:hover{stroke-width:8}</style>
<ellipse fill="#c43131" stroke="black" cx="136.68" cy="-201.4" rx="37.45" ry="28.98"/>
<text text-anchor="middle" x="136.68" y="-209.9" font-family="Helvetica,sans-Serif" font-size="10.00" fill="#ffffff">aioquic.</text>
<text text-anchor="middle" x="136.68" y="-198.9" font-family="Helvetica,sans-Serif" font-size="10.00" fill="#ffffff">asyncio.</text>
<text text-anchor="middle" x="136.68" y="-187.9" font-family="Helvetica,sans-Serif" font-size="10.00" fill="#ffffff">protocol</text>
</g>
<!-- aioquic_asyncio_protocol&#45;&gt;aioquic_asyncio -->
<g id="edge3" class="edge">
<title>aioquic_asyncio_protocol&#45;&gt;aioquic_asyncio</title><style>.edge>path:hover{stroke-width:8}</style>
<path fill="none" stroke="black" d="M136.68,-172.17C136.68,-139.58 136.68,-86.19 136.68,-52.68"/>
<polygon fill="#c43131" stroke="black" points="140.18,-52.56 136.68,-42.56 133.18,-52.56 140.18,-52.56"/>
</g>
<!-- aioquic_asyncio_protocol&#45;&gt;aioquic_asyncio_client -->
<g id="edge4" class="edge">
<title>aioquic_asyncio_protocol&#45;&gt;aioquic_asyncio_client</title><style>.edge>path:hover{stroke-width:8}</style>
<path fill="none" stroke="black" d="M118.92,-175.27C111.55,-164.84 102.9,-152.6 95.03,-141.46"/>
<polygon fill="#c43131" stroke="black" points="97.83,-139.35 89.2,-133.2 92.11,-143.39 97.83,-139.35"/>
</g>
<!-- aioquic_asyncio_server -->
<g id="node6" class="node">
<title>aioquic_asyncio_server</title><style>.edge>path:hover{stroke-width:8}</style>
<ellipse fill="#8a2e2e" stroke="black" cx="201.68" cy="-107.42" rx="37.45" ry="28.98"/>
<text text-anchor="middle" x="201.68" y="-115.92" font-family="Helvetica,sans-Serif" font-size="10.00" fill="#ffffff">aioquic.</text>
<text text-anchor="middle" x="201.68" y="-104.92" font-family="Helvetica,sans-Serif" font-size="10.00" fill="#ffffff">asyncio.</text>
<text text-anchor="middle" x="201.68" y="-93.92" font-family="Helvetica,sans-Serif" font-size="10.00" fill="#ffffff">server</text>
</g>
<!-- aioquic_asyncio_protocol&#45;&gt;aioquic_asyncio_server -->
<g id="edge5" class="edge">
<title>aioquic_asyncio_protocol&#45;&gt;aioquic_asyncio_server</title><style>.edge>path:hover{stroke-width:8}</style>
<path fill="none" stroke="black" d="M154.44,-175.27C161.81,-164.84 170.46,-152.6 178.33,-141.46"/>
<polygon fill="#c43131" stroke="black" points="181.25,-143.39 184.17,-133.2 175.54,-139.35 181.25,-143.39"/>
</g>
<!-- aioquic_asyncio_server&#45;&gt;aioquic_asyncio -->
<g id="edge6" class="edge">
<title>aioquic_asyncio_server&#45;&gt;aioquic_asyncio</title><style>.edge>path:hover{stroke-width:8}</style>
<path fill="none" stroke="black" d="M182.88,-82.06C174.89,-71.71 165.55,-59.62 157.37,-49.01"/>
<polygon fill="#8a2e2e" stroke="black" points="159.99,-46.67 151.1,-40.9 154.44,-50.95 159.99,-46.67"/>
</g>
<!-- aioquic_buffer -->
<g id="node7" class="node">
<title>aioquic_buffer</title><style>.edge>path:hover{stroke-width:8}</style>
<ellipse fill="#e72222" stroke="black" cx="228.68" cy="-732.32" rx="43.62" ry="18"/>
<text text-anchor="middle" x="228.68" y="-729.82" font-family="Helvetica,sans-Serif" font-size="10.00" fill="#ffffff">aioquic.buffer</text>
</g>
<!-- aioquic_buffer&#45;&gt;aioquic_asyncio_server -->
<g id="edge7" class="edge">
<title>aioquic_buffer&#45;&gt;aioquic_asyncio_server</title><style>.edge>path:hover{stroke-width:8}</style>
<path fill="none" stroke="black" d="M364.68,-576.33C377.15,-537.4 353.73,-523.74 364.68,-484.35"/>
</g>
<!-- aioquic_quic_connection -->
<g id="node10" class="node">
<title>aioquic_quic_connection</title><style>.edge>path:hover{stroke-width:8}</style>
<ellipse fill="#ae1e1e" stroke="black" cx="213.68" cy="-389.37" rx="45.01" ry="28.98"/>
<text text-anchor="middle" x="213.68" y="-397.87" font-family="Helvetica,sans-Serif" font-size="10.00" fill="#ffffff">aioquic.</text>
<text text-anchor="middle" x="213.68" y="-386.87" font-family="Helvetica,sans-Serif" font-size="10.00" fill="#ffffff">quic.</text>
<text text-anchor="middle" x="213.68" y="-375.87" font-family="Helvetica,sans-Serif" font-size="10.00" fill="#ffffff">connection</text>
</g>
<!-- aioquic_buffer&#45;&gt;aioquic_quic_connection -->
<g id="edge8" class="edge">
<title>aioquic_buffer&#45;&gt;aioquic_quic_connection</title><style>.edge>path:hover{stroke-width:8}</style>
<path fill="none" stroke="black" d="M288.68,-659.32C299.51,-630.69 257.1,-634.31 244.68,-606.32 218.86,-548.15 213.58,-473.31 213,-428.74"/>
<polygon fill="#e72222" stroke="black" points="216.5,-428.6 212.94,-418.62 209.5,-428.64 216.5,-428.6"/>
<path fill="none" stroke="black" d="M247.17,-715.89C261.25,-702.92 279.71,-683.07 288.68,-661.32"/>
</g>
<!-- aioquic_quic_packet -->
<g id="node11" class="node">
<title>aioquic_quic_packet</title><style>.edge>path:hover{stroke-width:8}</style>
<ellipse fill="#cc3333" stroke="black" cx="288.68" cy="-577.33" rx="35.21" ry="28.98"/>
<text text-anchor="middle" x="288.68" y="-585.83" font-family="Helvetica,sans-Serif" font-size="10.00" fill="#ffffff">aioquic.</text>
<text text-anchor="middle" x="288.68" y="-574.83" font-family="Helvetica,sans-Serif" font-size="10.00" fill="#ffffff">quic.</text>
<text text-anchor="middle" x="288.68" y="-563.83" font-family="Helvetica,sans-Serif" font-size="10.00" fill="#ffffff">packet</text>
</g>
<!-- aioquic_buffer&#45;&gt;aioquic_quic_packet -->
<g id="edge9" class="edge">
<title>aioquic_buffer&#45;&gt;aioquic_quic_packet</title><style>.edge>path:hover{stroke-width:8}</style>
<path fill="none" stroke="black" d="M288.68,-659.32C293.75,-645.91 294.78,-630.32 294.19,-616.43"/>
<polygon fill="#e72222" stroke="black" points="297.66,-615.93 293.46,-606.2 290.68,-616.43 297.66,-615.93"/>
</g>
<!-- aioquic_quic_retry -->
<g id="node12" class="node">
<title>aioquic_quic_retry</title><style>.edge>path:hover{stroke-width:8}</style>
<ellipse fill="#a44646" stroke="black" cx="301.68" cy="-295.38" rx="35.21" ry="28.98"/>
<text text-anchor="middle" x="301.68" y="-303.88" font-family="Helvetica,sans-Serif" font-size="10.00" fill="#ffffff">aioquic.</text>
<text text-anchor="middle" x="301.68" y="-292.88" font-family="Helvetica,sans-Serif" font-size="10.00" fill="#ffffff">quic.</text>
<text text-anchor="middle" x="301.68" y="-281.88" font-family="Helvetica,sans-Serif" font-size="10.00" fill="#ffffff">retry</text>
</g>
<!-- aioquic_buffer&#45;&gt;aioquic_quic_retry -->
<g id="edge10" class="edge">
<title>aioquic_buffer&#45;&gt;aioquic_quic_retry</title><style>.edge>path:hover{stroke-width:8}</style>
<path fill="none" stroke="black" d="M364.68,-576.33C372.48,-548.28 356.72,-540.82 350.68,-512.34 339.21,-458.2 320.25,-445.44 325.68,-390.37"/>
<path fill="none" stroke="black" d="M288.68,-659.32C307.52,-613.69 349.63,-625.34 364.68,-578.33"/>
</g>
<!-- aioquic_tls -->
<g id="node13" class="node">
<title>aioquic_tls</title><style>.edge>path:hover{stroke-width:8}</style>
<ellipse fill="#e61919" stroke="black" cx="189.68" cy="-660.32" rx="35.82" ry="18"/>
<text text-anchor="middle" x="189.68" y="-657.82" font-family="Helvetica,sans-Serif" font-size="10.00" fill="#ffffff">aioquic.tls</text>
</g>
<!-- aioquic_buffer&#45;&gt;aioquic_tls -->
<g id="edge11" class="edge">
<title>aioquic_buffer&#45;&gt;aioquic_tls</title><style>.edge>path:hover{stroke-width:8}</style>
<path fill="none" stroke="black" d="M219.24,-714.38C214.64,-706.12 209.02,-696.02 203.91,-686.86"/>
<polygon fill="#e72222" stroke="black" points="206.96,-685.14 199.04,-678.11 200.85,-688.55 206.96,-685.14"/>
</g>
<!-- aioquic_quic -->
<g id="node8" class="node">
<title>aioquic_quic</title><style>.edge>path:hover{stroke-width:8}</style>
<ellipse fill="#db2f2f" stroke="black" cx="72.68" cy="-389.37" rx="40.06" ry="18"/>
<text text-anchor="middle" x="72.68" y="-386.87" font-family="Helvetica,sans-Serif" font-size="10.00" fill="#ffffff">aioquic.quic</text>
</g>
<!-- aioquic_quic&#45;&gt;aioquic_asyncio_client -->
<g id="edge12" class="edge">
<title>aioquic_quic&#45;&gt;aioquic_asyncio_client</title><style>.edge>path:hover{stroke-width:8}</style>
<path fill="none" stroke="black" d="M69.47,-371.31C66.61,-352.51 63.97,-321.58 71.68,-296.38"/>
<path fill="none" stroke="black" d="M71.68,-294.38C83.65,-255.29 70.74,-243.27 71.68,-202.4"/>
</g>
<!-- aioquic_quic&#45;&gt;aioquic_asyncio_protocol -->
<g id="edge13" class="edge">
<title>aioquic_quic&#45;&gt;aioquic_asyncio_protocol</title><style>.edge>path:hover{stroke-width:8}</style>
<path fill="none" stroke="black" d="M71.68,-294.38C78.67,-271.57 93.77,-249.6 107.65,-232.86"/>
<polygon fill="#db2f2f" stroke="black" points="110.47,-234.95 114.33,-225.08 105.16,-230.39 110.47,-234.95"/>
</g>
<!-- aioquic_quic&#45;&gt;aioquic_asyncio_server -->
<g id="edge14" class="edge">
<title>aioquic_quic&#45;&gt;aioquic_asyncio_server</title><style>.edge>path:hover{stroke-width:8}</style>
<path fill="none" stroke="black" d="M201.68,-200.4C199.7,-182.96 199.42,-163.54 199.74,-147.05"/>
<polygon fill="#db2f2f" stroke="black" points="203.25,-146.79 200.03,-136.69 196.26,-146.59 203.25,-146.79"/>
<path fill="none" stroke="black" d="M71.68,-294.38C92.41,-226.71 209.68,-272.72 201.68,-202.4"/>
</g>
<!-- aioquic_quic_configuration -->
<g id="node9" class="node">
<title>aioquic_quic_configuration</title><style>.edge>path:hover{stroke-width:8}</style>
<ellipse fill="#c43131" stroke="black" cx="134.68" cy="-483.35" rx="50.41" ry="28.98"/>
<text text-anchor="middle" x="134.68" y="-491.85" font-family="Helvetica,sans-Serif" font-size="10.00" fill="#ffffff">aioquic.</text>
<text text-anchor="middle" x="134.68" y="-480.85" font-family="Helvetica,sans-Serif" font-size="10.00" fill="#ffffff">quic.</text>
<text text-anchor="middle" x="134.68" y="-469.85" font-family="Helvetica,sans-Serif" font-size="10.00" fill="#ffffff">configuration</text>
</g>
<!-- aioquic_quic_configuration&#45;&gt;aioquic_asyncio_client -->
<g id="edge15" class="edge">
<title>aioquic_quic_configuration&#45;&gt;aioquic_asyncio_client</title><style>.edge>path:hover{stroke-width:8}</style>
<path fill="none" stroke="black" d="M95.35,-465.15C72.72,-453.99 44.7,-437.89 23.68,-418.36 12.67,-408.12 9.13,-404.73 4.68,-390.37"/>
</g>
<!-- aioquic_quic_configuration&#45;&gt;aioquic_asyncio_server -->
<g id="edge16" class="edge">
<title>aioquic_quic_configuration&#45;&gt;aioquic_asyncio_server</title><style>.edge>path:hover{stroke-width:8}</style>
<path fill="none" stroke="black" d="M181.74,-473.08C211.96,-464.43 248.93,-448.19 267.68,-418.36 302.9,-362.34 207.73,-255.53 201.68,-202.4"/>
</g>
<!-- aioquic_quic_configuration&#45;&gt;aioquic_quic_connection -->
<g id="edge17" class="edge">
<title>aioquic_quic_configuration&#45;&gt;aioquic_quic_connection</title><style>.edge>path:hover{stroke-width:8}</style>
<path fill="none" stroke="black" d="M156.69,-456.73C165.65,-446.29 176.12,-434.1 185.63,-423.03"/>
<polygon fill="#c43131" stroke="black" points="188.48,-425.08 192.34,-415.22 183.17,-420.52 188.48,-425.08"/>
</g>
<!-- aioquic_quic_connection&#45;&gt;aioquic_asyncio_client -->
<g id="edge18" class="edge">
<title>aioquic_quic_connection&#45;&gt;aioquic_asyncio_client</title><style>.edge>path:hover{stroke-width:8}</style>
<path fill="none" stroke="black" d="M182.77,-368C140.49,-337.4 70,-275.3 71.68,-202.4"/>
</g>
<!-- aioquic_quic_connection&#45;&gt;aioquic_asyncio_protocol -->
<g id="edge19" class="edge">
<title>aioquic_quic_connection&#45;&gt;aioquic_asyncio_protocol</title><style>.edge>path:hover{stroke-width:8}</style>
<path fill="none" stroke="black" d="M211.05,-360.35C209,-342 205.66,-317.58 200.68,-296.38"/>
<path fill="none" stroke="black" d="M200.68,-294.38C195.22,-271.11 180.26,-248.98 166.17,-232.27"/>
<polygon fill="#ae1e1e" stroke="black" points="168.59,-229.72 159.37,-224.51 163.33,-234.34 168.59,-229.72"/>
</g>
<!-- aioquic_quic_connection&#45;&gt;aioquic_asyncio_server -->
<g id="edge20" class="edge">
<title>aioquic_quic_connection&#45;&gt;aioquic_asyncio_server</title><style>.edge>path:hover{stroke-width:8}</style>
<path fill="none" stroke="black" d="M200.68,-294.38C191.34,-254.58 206.3,-243.02 201.68,-202.4"/>
</g>
<!-- aioquic_quic_connection&#45;&gt;aioquic_quic_retry -->
<g id="edge21" class="edge">
<title>aioquic_quic_connection&#45;&gt;aioquic_quic_retry</title><style>.edge>path:hover{stroke-width:8}</style>
<path fill="none" stroke="black" d="M236.8,-364.2C247.94,-352.56 261.39,-338.5 273.16,-326.2"/>
<polygon fill="#ae1e1e" stroke="black" points="275.84,-328.46 280.23,-318.81 270.78,-323.62 275.84,-328.46"/>
</g>
<!-- aioquic_quic_packet&#45;&gt;aioquic_asyncio_server -->
<g id="edge22" class="edge">
<title>aioquic_quic_packet&#45;&gt;aioquic_asyncio_server</title><style>.edge>path:hover{stroke-width:8}</style>
<path fill="none" stroke="black" d="M364.68,-482.35C383.08,-387.77 401.68,-344.8 345.68,-266.39 304.98,-209.4 209.83,-271.96 201.68,-202.4"/>
<path fill="none" stroke="black" d="M313.85,-556.46C332.68,-539.66 356.52,-513.69 364.68,-484.35"/>
</g>
<!-- aioquic_quic_packet&#45;&gt;aioquic_quic_configuration -->
<g id="edge23" class="edge">
<title>aioquic_quic_packet&#45;&gt;aioquic_quic_configuration</title><style>.edge>path:hover{stroke-width:8}</style>
<path fill="none" stroke="black" d="M260.44,-559.46C237.27,-545.62 204.09,-525.81 177.63,-510"/>
<polygon fill="#cc3333" stroke="black" points="179.32,-506.93 168.94,-504.81 175.73,-512.94 179.32,-506.93"/>
</g>
<!-- aioquic_quic_packet&#45;&gt;aioquic_quic_connection -->
<g id="edge24" class="edge">
<title>aioquic_quic_packet&#45;&gt;aioquic_quic_connection</title><style>.edge>path:hover{stroke-width:8}</style>
<path fill="none" stroke="black" d="M277.94,-549.69C264.98,-517.56 243.13,-463.38 228.56,-427.24"/>
<polygon fill="#cc3333" stroke="black" points="231.64,-425.53 224.65,-417.57 225.15,-428.15 231.64,-425.53"/>
</g>
<!-- aioquic_quic_retry&#45;&gt;aioquic_asyncio_server -->
<g id="edge25" class="edge">
<title>aioquic_quic_retry&#45;&gt;aioquic_asyncio_server</title><style>.edge>path:hover{stroke-width:8}</style>
<path fill="none" stroke="black" d="M274.89,-276.04C246.04,-255.35 203.92,-222.03 201.68,-202.4"/>
</g>
<!-- aioquic_tls&#45;&gt;aioquic_asyncio_client -->
<g id="edge26" class="edge">
<title>aioquic_tls&#45;&gt;aioquic_asyncio_client</title><style>.edge>path:hover{stroke-width:8}</style>
<path fill="none" stroke="black" d="M155.68,-576.33C139.86,-518.39 63.74,-543.99 56.68,-484.35"/>
<path fill="none" stroke="black" d="M181.19,-642.72C173.35,-626.66 161.99,-601.43 155.68,-578.33"/>
<path fill="none" stroke="black" d="M4.68,-388.37C-21.31,-304.45 69.35,-290.22 71.68,-202.4"/>
<path fill="none" stroke="black" d="M71.68,-200.4C71.84,-182.85 71.86,-163.41 71.83,-146.94"/>
<polygon fill="#e61919" stroke="black" points="75.33,-146.59 71.81,-136.6 68.33,-146.61 75.33,-146.59"/>
<path fill="none" stroke="black" d="M56.68,-482.35C51.16,-435.71 16.29,-435.87 4.68,-390.37"/>
</g>
<!-- aioquic_tls&#45;&gt;aioquic_asyncio_server -->
<g id="edge27" class="edge">
<title>aioquic_tls&#45;&gt;aioquic_asyncio_server</title><style>.edge>path:hover{stroke-width:8}</style>
<path fill="none" stroke="black" d="M56.68,-482.35C53.89,-457.16 121.12,-419.13 121.68,-418.36 136.77,-397.69 204.58,-227.83 201.68,-202.4"/>
</g>
<!-- aioquic_tls&#45;&gt;aioquic_quic_configuration -->
<g id="edge28" class="edge">
<title>aioquic_tls&#45;&gt;aioquic_quic_configuration</title><style>.edge>path:hover{stroke-width:8}</style>
<path fill="none" stroke="black" d="M155.68,-576.33C151.35,-558.54 146.8,-538.74 143.05,-522.09"/>
<polygon fill="#e61919" stroke="black" points="146.42,-521.16 140.82,-512.17 139.59,-522.69 146.42,-521.16"/>
</g>
<!-- aioquic_tls&#45;&gt;aioquic_quic_connection -->
<g id="edge29" class="edge">
<title>aioquic_tls&#45;&gt;aioquic_quic_connection</title><style>.edge>path:hover{stroke-width:8}</style>
<path fill="none" stroke="black" d="M56.68,-482.35C51.64,-436.87 140.14,-425.12 154.68,-418.36 159.32,-416.2 164.15,-413.94 168.97,-411.67"/>
<polygon fill="#e61919" stroke="black" points="170.61,-414.76 178.16,-407.33 167.62,-408.43 170.61,-414.76"/>
</g>
<!-- aioquic_tls&#45;&gt;aioquic_quic_retry -->
<g id="edge30" class="edge">
<title>aioquic_tls&#45;&gt;aioquic_quic_retry</title><style>.edge>path:hover{stroke-width:8}</style>
<path fill="none" stroke="black" d="M325.68,-388.37C326.85,-369.68 322.27,-349.49 316.81,-332.8"/>
<polygon fill="#e61919" stroke="black" points="319.95,-331.18 313.33,-322.9 313.34,-333.5 319.95,-331.18"/>
<path fill="none" stroke="black" d="M155.68,-576.33C142.45,-521.93 322.18,-446.25 325.68,-390.37"/>
</g>
</g>
</svg>
