<?xml version="1.0" encoding="UTF-8" standalone="no"?>
<!DOCTYPE svg PUBLIC "-//W3C//DTD SVG 1.1//EN"
 "http://www.w3.org/Graphics/SVG/1.1/DTD/svg11.dtd">
<!-- Generated by graphviz version 3.0.0 (20220226.1711)
 -->
<!-- Title: G Pages: 1 -->
<svg width="317pt" height="607pt"
 viewBox="0.00 0.00 317.01 607.36" xmlns="http://www.w3.org/2000/svg" xmlns:xlink="http://www.w3.org/1999/xlink">
<g id="graph0" class="graph" transform="scale(1 1) rotate(0) translate(4 603.36)">
<title>G</title><style>.edge>path:hover{stroke-width:8}</style>
<polygon fill="white" stroke="transparent" points="-4,4 -4,-603.36 313.01,-603.36 313.01,4 -4,4"/>
<!-- aioquic -->
<g id="node1" class="node">
<title>aioquic</title><style>.edge>path:hover{stroke-width:8}</style>
<ellipse fill="#c04040" stroke="black" cx="43.56" cy="-509.36" rx="27.84" ry="18"/>
<text text-anchor="middle" x="43.56" y="-506.86" font-family="Helvetica,sans-Serif" font-size="10.00" fill="#ffffff">aioquic</text>
</g>
<!-- aioquic_about -->
<g id="node2" class="node">
<title>aioquic_about</title><style>.edge>path:hover{stroke-width:8}</style>
<ellipse fill="#b65353" stroke="black" cx="43.56" cy="-581.36" rx="43.62" ry="18"/>
<text text-anchor="middle" x="43.56" y="-578.86" font-family="Helvetica,sans-Serif" font-size="10.00" fill="#ffffff">aioquic.about</text>
</g>
<!-- aioquic_about&#45;&gt;aioquic -->
<g id="edge1" class="edge">
<title>aioquic_about&#45;&gt;aioquic</title><style>.edge>path:hover{stroke-width:8}</style>
<path fill="none" stroke="black" d="M43.56,-563.05C43.56,-555.34 43.56,-546.07 43.56,-537.47"/>
<polygon fill="#b65353" stroke="black" points="47.06,-537.46 43.56,-527.46 40.06,-537.46 47.06,-537.46"/>
</g>
<!-- aioquic_asyncio -->
<g id="node3" class="node">
<title>aioquic_asyncio</title><style>.edge>path:hover{stroke-width:8}</style>
<ellipse fill="#a44646" stroke="black" cx="185.56" cy="-21.21" rx="35.21" ry="21.43"/>
<text text-anchor="middle" x="185.56" y="-24.21" font-family="Helvetica,sans-Serif" font-size="10.00" fill="#ffffff">aioquic.</text>
<text text-anchor="middle" x="185.56" y="-13.21" font-family="Helvetica,sans-Serif" font-size="10.00" fill="#ffffff">asyncio</text>
</g>
<!-- aioquic_asyncio_client -->
<g id="node4" class="node">
<title>aioquic_asyncio_client</title><style>.edge>path:hover{stroke-width:8}</style>
<ellipse fill="#a13535" stroke="black" cx="120.56" cy="-107.42" rx="37.45" ry="28.98"/>
<text text-anchor="middle" x="120.56" y="-115.92" font-family="Helvetica,sans-Serif" font-size="10.00" fill="#ffffff">aioquic.</text>
<text text-anchor="middle" x="120.56" y="-104.92" font-family="Helvetica,sans-Serif" font-size="10.00" fill="#ffffff">asyncio.</text>
<text text-anchor="middle" x="120.56" y="-93.92" font-family="Helvetica,sans-Serif" font-size="10.00" fill="#ffffff">client</text>
</g>
<!-- aioquic_asyncio_client&#45;&gt;aioquic_asyncio -->
<g id="edge2" class="edge">
<title>aioquic_asyncio_client&#45;&gt;aioquic_asyncio</title><style>.edge>path:hover{stroke-width:8}</style>
<path fill="none" stroke="black" d="M139.36,-82.06C147.35,-71.71 156.69,-59.62 164.87,-49.01"/>
<polygon fill="#a13535" stroke="black" points="167.8,-50.95 171.14,-40.9 162.26,-46.67 167.8,-50.95"/>
</g>
<!-- aioquic_asyncio_protocol -->
<g id="node5" class="node">
<title>aioquic_asyncio_protocol</title><style>.edge>path:hover{stroke-width:8}</style>
<ellipse fill="#c43131" stroke="black" cx="185.56" cy="-201.4" rx="37.45" ry="28.98"/>
<text text-anchor="middle" x="185.56" y="-209.9" font-family="Helvetica,sans-Serif" font-size="10.00" fill="#ffffff">aioquic.</text>
<text text-anchor="middle" x="185.56" y="-198.9" font-family="Helvetica,sans-Serif" font-size="10.00" fill="#ffffff">asyncio.</text>
<text text-anchor="middle" x="185.56" y="-187.9" font-family="Helvetica,sans-Serif" font-size="10.00" fill="#ffffff">protocol</text>
</g>
<!-- aioquic_asyncio_protocol&#45;&gt;aioquic_asyncio -->
<g id="edge3" class="edge">
<title>aioquic_asyncio_protocol&#45;&gt;aioquic_asyncio</title><style>.edge>path:hover{stroke-width:8}</style>
<path fill="none" stroke="black" d="M185.56,-172.17C185.56,-139.58 185.56,-86.19 185.56,-52.68"/>
<polygon fill="#c43131" stroke="black" points="189.06,-52.56 185.56,-42.56 182.06,-52.56 189.06,-52.56"/>
</g>
<!-- aioquic_asyncio_protocol&#45;&gt;aioquic_asyncio_client -->
<g id="edge4" class="edge">
<title>aioquic_asyncio_protocol&#45;&gt;aioquic_asyncio_client</title><style>.edge>path:hover{stroke-width:8}</style>
<path fill="none" stroke="black" d="M167.8,-175.27C160.43,-164.84 151.78,-152.6 143.91,-141.46"/>
<polygon fill="#c43131" stroke="black" points="146.71,-139.35 138.08,-133.2 140.99,-143.39 146.71,-139.35"/>
</g>
<!-- aioquic_asyncio_server -->
<g id="node6" class="node">
<title>aioquic_asyncio_server</title><style>.edge>path:hover{stroke-width:8}</style>
<ellipse fill="#964040" stroke="black" cx="250.56" cy="-107.42" rx="37.45" ry="28.98"/>
<text text-anchor="middle" x="250.56" y="-115.92" font-family="Helvetica,sans-Serif" font-size="10.00" fill="#ffffff">aioquic.</text>
<text text-anchor="middle" x="250.56" y="-104.92" font-family="Helvetica,sans-Serif" font-size="10.00" fill="#ffffff">asyncio.</text>
<text text-anchor="middle" x="250.56" y="-93.92" font-family="Helvetica,sans-Serif" font-size="10.00" fill="#ffffff">server</text>
</g>
<!-- aioquic_asyncio_protocol&#45;&gt;aioquic_asyncio_server -->
<g id="edge5" class="edge">
<title>aioquic_asyncio_protocol&#45;&gt;aioquic_asyncio_server</title><style>.edge>path:hover{stroke-width:8}</style>
<path fill="none" stroke="black" d="M203.32,-175.27C210.69,-164.84 219.34,-152.6 227.21,-141.46"/>
<polygon fill="#c43131" stroke="black" points="230.13,-143.39 233.05,-133.2 224.42,-139.35 230.13,-143.39"/>
</g>
<!-- aioquic_asyncio_server&#45;&gt;aioquic_asyncio -->
<g id="edge6" class="edge">
<title>aioquic_asyncio_server&#45;&gt;aioquic_asyncio</title><style>.edge>path:hover{stroke-width:8}</style>
<path fill="none" stroke="black" d="M231.76,-82.06C223.77,-71.71 214.43,-59.62 206.25,-49.01"/>
<polygon fill="#964040" stroke="black" points="208.86,-46.67 199.98,-40.9 203.32,-50.95 208.86,-46.67"/>
</g>
<!-- aioquic_quic -->
<g id="node7" class="node">
<title>aioquic_quic</title><style>.edge>path:hover{stroke-width:8}</style>
<ellipse fill="#db2f2f" stroke="black" cx="238.56" cy="-332.38" rx="40.06" ry="18"/>
<text text-anchor="middle" x="238.56" y="-329.88" font-family="Helvetica,sans-Serif" font-size="10.00" fill="#ffffff">aioquic.quic</text>
</g>
<!-- aioquic_quic&#45;&gt;aioquic_asyncio_client -->
<g id="edge7" class="edge">
<title>aioquic_quic&#45;&gt;aioquic_asyncio_client</title><style>.edge>path:hover{stroke-width:8}</style>
<path fill="none" stroke="black" d="M219.81,-316.48C186.44,-289.22 120.27,-231.46 120.56,-202.4"/>
</g>
<!-- aioquic_quic&#45;&gt;aioquic_asyncio_protocol -->
<g id="edge8" class="edge">
<title>aioquic_quic&#45;&gt;aioquic_asyncio_protocol</title><style>.edge>path:hover{stroke-width:8}</style>
<path fill="none" stroke="black" d="M252.56,-266.39C250.3,-249.22 238.09,-235.18 224.7,-224.67"/>
<polygon fill="#db2f2f" stroke="black" points="226.44,-221.61 216.29,-218.58 222.34,-227.28 226.44,-221.61"/>
<path fill="none" stroke="black" d="M245.58,-314.41C250.07,-301.59 254.69,-283.51 252.56,-267.39"/>
</g>
<!-- aioquic_quic&#45;&gt;aioquic_asyncio_server -->
<g id="edge9" class="edge">
<title>aioquic_quic&#45;&gt;aioquic_asyncio_server</title><style>.edge>path:hover{stroke-width:8}</style>
<path fill="none" stroke="black" d="M252.56,-266.39C248.84,-238.2 252.86,-230.84 252.56,-202.4"/>
</g>
<!-- aioquic_quic_configuration -->
<g id="node8" class="node">
<title>aioquic_quic_configuration</title><style>.edge>path:hover{stroke-width:8}</style>
<ellipse fill="#cc3333" stroke="black" cx="140.56" cy="-426.37" rx="50.41" ry="28.98"/>
<text text-anchor="middle" x="140.56" y="-434.87" font-family="Helvetica,sans-Serif" font-size="10.00" fill="#ffffff">aioquic.</text>
<text text-anchor="middle" x="140.56" y="-423.87" font-family="Helvetica,sans-Serif" font-size="10.00" fill="#ffffff">quic.</text>
<text text-anchor="middle" x="140.56" y="-412.87" font-family="Helvetica,sans-Serif" font-size="10.00" fill="#ffffff">configuration</text>
</g>
<!-- aioquic_quic_configuration&#45;&gt;aioquic_asyncio_client -->
<g id="edge10" class="edge">
<title>aioquic_quic_configuration&#45;&gt;aioquic_asyncio_client</title><style>.edge>path:hover{stroke-width:8}</style>
<path fill="none" stroke="black" d="M108.42,-403.83C87.93,-387.38 64.81,-362.61 62.56,-333.38"/>
</g>
<!-- aioquic_quic_configuration&#45;&gt;aioquic_asyncio_server -->
<g id="edge11" class="edge">
<title>aioquic_quic_configuration&#45;&gt;aioquic_asyncio_server</title><style>.edge>path:hover{stroke-width:8}</style>
<path fill="none" stroke="black" d="M306.56,-331.38C321.45,-271.05 254.8,-264.51 252.56,-202.4"/>
<path fill="none" stroke="black" d="M188.67,-418.06C233.88,-408.07 296.1,-385.05 306.56,-333.38"/>
</g>
<!-- aioquic_quic_connection -->
<g id="node9" class="node">
<title>aioquic_quic_connection</title><style>.edge>path:hover{stroke-width:8}</style>
<ellipse fill="#b42d2d" stroke="black" cx="135.56" cy="-332.38" rx="45.01" ry="28.98"/>
<text text-anchor="middle" x="135.56" y="-340.88" font-family="Helvetica,sans-Serif" font-size="10.00" fill="#ffffff">aioquic.</text>
<text text-anchor="middle" x="135.56" y="-329.88" font-family="Helvetica,sans-Serif" font-size="10.00" fill="#ffffff">quic.</text>
<text text-anchor="middle" x="135.56" y="-318.88" font-family="Helvetica,sans-Serif" font-size="10.00" fill="#ffffff">connection</text>
</g>
<!-- aioquic_quic_configuration&#45;&gt;aioquic_quic_connection -->
<g id="edge12" class="edge">
<title>aioquic_quic_configuration&#45;&gt;aioquic_quic_connection</title><style>.edge>path:hover{stroke-width:8}</style>
<path fill="none" stroke="black" d="M139.03,-397.27C138.6,-389.23 138.11,-380.33 137.65,-371.79"/>
<polygon fill="#cc3333" stroke="black" points="141.13,-371.42 137.1,-361.63 134.14,-371.8 141.13,-371.42"/>
</g>
<!-- aioquic_quic_connection&#45;&gt;aioquic_asyncio_client -->
<g id="edge13" class="edge">
<title>aioquic_quic_connection&#45;&gt;aioquic_asyncio_client</title><style>.edge>path:hover{stroke-width:8}</style>
<path fill="none" stroke="black" d="M120.56,-266.39C123.9,-238.15 120.27,-230.84 120.56,-202.4"/>
<path fill="none" stroke="black" d="M124.77,-303.91C121.51,-292.69 119.13,-279.52 120.56,-267.39"/>
</g>
<!-- aioquic_quic_connection&#45;&gt;aioquic_asyncio_protocol -->
<g id="edge14" class="edge">
<title>aioquic_quic_connection&#45;&gt;aioquic_asyncio_protocol</title><style>.edge>path:hover{stroke-width:8}</style>
<path fill="none" stroke="black" d="M120.56,-266.39C122.55,-249.59 134.2,-235.67 147.1,-225.15"/>
<polygon fill="#b42d2d" stroke="black" points="149.33,-227.85 155.21,-219.04 145.12,-222.26 149.33,-227.85"/>
</g>
<!-- aioquic_quic_connection&#45;&gt;aioquic_asyncio_server -->
<g id="edge15" class="edge">
<title>aioquic_quic_connection&#45;&gt;aioquic_asyncio_server</title><style>.edge>path:hover{stroke-width:8}</style>
<path fill="none" stroke="black" d="M169.6,-312.98C204.33,-291.45 253.09,-252.28 252.56,-202.4"/>
<path fill="none" stroke="black" d="M252.56,-200.4C251.93,-182.85 251.47,-163.42 251.15,-146.95"/>
<polygon fill="#b42d2d" stroke="black" points="254.65,-146.54 250.96,-136.6 247.65,-146.67 254.65,-146.54"/>
</g>
<!-- aioquic_tls -->
<g id="node10" class="node">
<title>aioquic_tls</title><style>.edge>path:hover{stroke-width:8}</style>
<ellipse fill="#db2f2f" stroke="black" cx="140.56" cy="-581.36" rx="35.82" ry="18"/>
<text text-anchor="middle" x="140.56" y="-578.86" font-family="Helvetica,sans-Serif" font-size="10.00" fill="#ffffff">aioquic.tls</text>
</g>
<!-- aioquic_tls&#45;&gt;aioquic_asyncio_client -->
<g id="edge16" class="edge">
<title>aioquic_tls&#45;&gt;aioquic_asyncio_client</title><style>.edge>path:hover{stroke-width:8}</style>
<path fill="none" stroke="black" d="M62.56,-425.37C54.76,-385.24 65.7,-374.14 62.56,-333.38"/>
<path fill="none" stroke="black" d="M140.56,-508.36C146.52,-473.62 104.74,-481.91 81.56,-455.36 71.67,-444.03 65.43,-442.13 62.56,-427.37"/>
<path fill="none" stroke="black" d="M62.56,-331.38C57.73,-268.71 120.72,-265.26 120.56,-202.4"/>
<path fill="none" stroke="black" d="M138.96,-563.25C138,-548.99 137.5,-528.2 140.56,-510.36"/>
<path fill="none" stroke="black" d="M120.56,-200.4C119.98,-182.86 119.9,-163.42 119.99,-146.95"/>
<polygon fill="#db2f2f" stroke="black" points="123.5,-146.63 120.08,-136.61 116.5,-146.58 123.5,-146.63"/>
</g>
<!-- aioquic_tls&#45;&gt;aioquic_asyncio_server -->
<g id="edge17" class="edge">
<title>aioquic_tls&#45;&gt;aioquic_asyncio_server</title><style>.edge>path:hover{stroke-width:8}</style>
<path fill="none" stroke="black" d="M140.56,-508.36C146.52,-473.62 174.38,-480.02 199.56,-455.36 251.08,-404.89 292.26,-404.06 306.56,-333.38"/>
</g>
<!-- aioquic_tls&#45;&gt;aioquic_quic_configuration -->
<g id="edge18" class="edge">
<title>aioquic_tls&#45;&gt;aioquic_quic_configuration</title><style>.edge>path:hover{stroke-width:8}</style>
<path fill="none" stroke="black" d="M140.56,-508.36C142.91,-494.69 143.44,-479.53 143.22,-466.06"/>
<polygon fill="#db2f2f" stroke="black" points="146.71,-465.56 142.9,-455.68 139.71,-465.78 146.71,-465.56"/>
</g>
<!-- aioquic_tls&#45;&gt;aioquic_quic_connection -->
<g id="edge19" class="edge">
<title>aioquic_tls&#45;&gt;aioquic_quic_connection</title><style>.edge>path:hover{stroke-width:8}</style>
<path fill="none" stroke="black" d="M62.56,-425.37C57.51,-399.39 76.34,-376.12 96.14,-359.48"/>
<polygon fill="#db2f2f" stroke="black" points="98.37,-362.17 104.02,-353.21 94.01,-356.69 98.37,-362.17"/>
</g>
</g>
</svg>
